<?xml version="1.0" encoding="utf-8"?>
<svg viewBox="0 0 340 170" xmlns="http://www.w3.org/2000/svg" xmlns:xlink="http://www.w3.org/1999/xlink">
  <!--Generated by AMDN-->
  <g id="am1">
    <path id="am2" style="fill:#000000;fill-opacity:0;fill-rule:nonzero;opacity:1;stroke:#000000;stroke-linecap:butt;stroke-linejoin:round;stroke-miterlimit:10;stroke-opacity:1;stroke-width:0.5;" d="M62.1815,119.734 C66.7032,113.748,67.7637,110.774,68.8568,104.896 C70.155,97.9154,70.5823,90.1587,68.3149,88.8747 C59.2307,83.73,53.3847,71.4305,52.3458,65.2468 C50.3215,53.1969,52.2811,43.2722,58.4101,32.4121 C76.2308,0.835819,119.778,-3.53897,138.05,24.8936 C150.421,44.1464,143.868,53.2967,143.25,61.1098 C142.632,68.9231,153.653,79.7941,152.019,83.038 C150.659,85.736,145.963,84.0587,144.774,86.0516 C143.723,87.8147,143.972,88.3704,144.375,91.7575 C144.515,92.923,146.577,92.7184,145.711,93.9241 C143.291,97.2916,136.139,97.6464,136.157,100.286 C136.175,103.034,137.941,102.738,142.13,103.817 C142.915,104.02,143.801,104.999,143.473,106.03 C143.323,106.501,141.142,107.227,140.748,108.47 C139.853,111.304,141.008,115.301,136.611,118.654 C131.906,122.241,127.235,117.462,123.528,117.662 C118.558,117.929,111.405,126.219,110.265,134.719"/>
    <g id="am3">
      <path id="am4" style="fill:#000000;fill-opacity:0;fill-rule:nonzero;opacity:1;stroke:none;" d="M100.478,37.5772 C100.478,37.5772,99.9968,74.8798,100.014,74.5939"/>
      <path id="am5" style="fill:none;opacity:1;stroke:#000000;stroke-linecap:round;stroke-linejoin:round;stroke-miterlimit:10;stroke-opacity:1;stroke-width:0.966902;" d="M100.076,69.1936 C100.203,58.9222,100.478,37.5772,100.478,37.5772"/>
      <g id="am6">
        <path id="am7" style="fill:#000000;fill-opacity:1;fill-rule:nonzero;opacity:1;stroke:none;" d="M98.2103,67.401 C98.2103,67.401,100.014,74.5899,100.014,74.5899 C100.014,74.5899,101.714,67.401,101.714,67.401 C101.714,67.401,98.2103,67.401,98.2103,67.401 z"/>
      </g>
    </g>
    <g id="am8">
      <g id="am9">
        <path id="am10" style="fill:#000000;fill-opacity:1;fill-rule:nonzero;opacity:1;stroke:none;" d="M213.689,103.306 C213.689,103.306,216.276,95.7226,216.276,95.7226 C216.276,95.7226,210.052,96.4519,210.052,96.4519 C210.052,96.4519,213.689,103.306,213.689,103.306 z"/>
      </g>
    </g>
  </g>
  <g id="am11"/>
  <g id="am12">
    <path id="am13" style="fill:#000000;fill-opacity:0;fill-rule:evenodd;opacity:1;stroke:#020000;stroke-linecap:butt;stroke-linejoin:round;stroke-miterlimit:10;stroke-opacity:1;stroke-width:0.5;" d="M270.803,52.1277 C270.803,52.1277,292.165,57.8517,292.165,57.8517 C292.165,57.8517,229.678,157.853,229.678,157.853 C229.678,157.853,208.315,152.129,208.315,152.129 C208.315,152.129,270.803,52.1277,270.803,52.1277 z"/>
  </g>
  <g id="am14">
    <g id="am15">
      <path id="am16" style="fill:#505050;fill-opacity:1;fill-rule:nonzero;opacity:1;stroke:#020000;stroke-linecap:butt;stroke-linejoin:round;stroke-miterlimit:10;stroke-opacity:1;stroke-width:0;" d="M238.728,87.8031 C240.201,88.8274,242.397,91.3672,244.449,92.0705 C246.16,92.6568,251.528,92.7943,252.968,92.1429 C255.341,91.0697,260.785,86.786,260.785,86.786 C260.785,86.786,254.322,89.041,252.673,88.2963 C250.916,87.5034,249.287,85.6178,247.271,84.6791 C245.304,83.7633,240.019,83.2557,240.019,83.2557 C240.019,83.2557,233.635,82.5207,233.635,82.5207 C233.635,82.5207,232.7,84.9308,232.7,84.9308 C232.7,84.9308,237.358,86.8497,238.728,87.8031 z"/>
      <path id="am17" style="fill:#ffffff;fill-opacity:1;fill-rule:nonzero;opacity:1;stroke:#020000;stroke-linecap:butt;stroke-linejoin:round;stroke-miterlimit:10;stroke-opacity:1;stroke-width:0;" d="M238.138,87.1321 C239.611,88.1565,241.887,90.2454,243.749,91.3576 C245.299,92.2825,245.572,90.7409,245.944,89.8641 C246.354,88.8984,245.488,87.5723,245.488,87.5723 C245.488,87.5723,246.795,86.3447,246.795,86.3447 C246.795,86.3447,246.332,85.3631,245.909,84.993 C244.637,83.8783,239.348,83.4158,239.348,83.4158 C239.348,83.4158,232.988,82.1694,232.988,82.1694 C232.988,82.1694,232.376,84.3718,232.376,84.3718 C232.376,84.3718,236.768,86.1788,238.138,87.1321 z"/>
    </g>
    <path id="am18" style="fill:#9e9e9e;fill-opacity:1;fill-rule:nonzero;opacity:1;stroke:#020000;stroke-linecap:butt;stroke-linejoin:round;stroke-miterlimit:10;stroke-opacity:1;stroke-width:0.5;" d="M173.59,58.6479 C174.102,57.1892,175.73,56.4558,177.162,57.0394 C177.162,57.0394,237.044,81.3535,237.044,81.3535 C238.499,81.9466,239.723,83.1215,239.026,84.5286 C239.026,84.5286,238.128,87.0263,238.128,87.0263 C237.49,88.3115,236.01,88.1419,234.691,87.5768 C234.691,87.5768,175.075,62.0298,175.075,62.0298 C173.768,61.4697,173.119,59.9929,173.589,58.6511 C173.589,58.6511,173.59,58.6479,173.59,58.6479 z"/>
    <path id="am19" style="fill:#ffffff;fill-opacity:1;fill-rule:nonzero;opacity:1;stroke:#020000;stroke-linecap:butt;stroke-linejoin:round;stroke-miterlimit:10;stroke-opacity:1;stroke-width:0.5;" d="M185.201,122.602 C185.201,122.602,196.471,107.509,200.648,102.506 C204.201,98.2504,208.712,87.9562,211.172,82.9881 C212.967,79.3607,216.363,71.5149,219.805,69.4502 C223.435,67.2732,228.995,70.1791,232.859,71.8506 C235.329,72.9194,236.305,76.1335,237.93,78.2776 C239.601,80.4816,240.356,80.6119,240.253,83.3548 C240.145,86.2267,239.969,88.7363,237.174,89.0657 C234.529,89.3772,232.712,90.2992,232.712,90.2992 C232.712,90.2992,230.781,97.0987,229.273,98.9225 C226.518,102.255,214.839,106.073,214.839,106.073 C214.839,106.073,197.613,127.769,197.613,127.769"/>
    <g id="am20">
      <path id="am21" style="fill:none;opacity:1;stroke:#000000;stroke-linecap:round;stroke-linejoin:round;stroke-miterlimit:10;stroke-opacity:1;stroke-width:0.966902;" d="M212.972,98.8396 C207.086,103.286,199.706,110.183,192.931,112.179 C180.444,115.858,179.663,98.2424,163.973,99.533"/>
      <g id="am22">
        <path id="am23" style="fill:#000000;fill-opacity:1;fill-rule:nonzero;opacity:1;stroke:none;" d="M213.378,102.074 C213.378,102.074,216.368,96.0184,216.368,96.0184 C216.368,96.0184,210.044,97.5897,210.044,97.5897 C210.044,97.5897,213.378,102.074,213.378,102.074 z"/>
      </g>
    </g>
    <path id="am24" style="fill:#000000;fill-opacity:1;fill-rule:nonzero;opacity:1;stroke:none;" d="M261.785,85.4738 C261.785,85.4738,267.252,85.4738,267.252,85.4738 C267.252,85.4738,267.462,82.6894,267.462,82.6894 C267.462,82.6894,267.169,82.6614,267.169,82.6614 C266.875,84.5923,266.497,85.054,265.175,85.054 C265.175,85.054,263.517,85.054,263.517,85.054 C263.517,85.054,263.517,80.4227,263.517,80.4227 C263.517,80.4227,264.597,80.4227,264.597,80.4227 C265.217,80.4227,265.626,80.5347,265.783,80.7446 C265.93,80.9544,266.004,81.2203,266.077,81.8639 C266.077,81.8639,266.371,81.8639,266.371,81.8639 C266.371,81.8639,266.371,78.5758,266.371,78.5758 C266.371,78.5758,266.077,78.5758,266.077,78.5758 C265.962,79.8071,265.762,80.003,264.597,80.003 C264.597,80.003,263.517,80.003,263.517,80.003 C263.517,80.003,263.517,75.7495,263.517,75.7495 C263.517,75.7495,264.965,75.7495,264.965,75.7495 C266.308,75.7495,266.696,76.1692,266.948,77.8623 C266.948,77.8623,267.252,77.8343,267.252,77.8343 C267.252,77.8343,267.085,75.3297,267.085,75.3297 C267.085,75.3297,261.785,75.3297,261.785,75.3297 C261.785,75.3297,261.785,75.6655,261.785,75.6655 C262.268,75.6655,262.457,75.7775,262.53,76.0713 C262.562,76.1972,262.562,76.2112,262.583,77.1067 C262.583,77.1067,262.583,83.6968,262.583,83.6968 C262.562,84.7462,262.562,84.7602,262.446,84.9281 C262.352,85.068,262.142,85.138,261.785,85.138 C261.785,85.138,261.785,85.4738,261.785,85.4738 z"/>
    <path id="am25" style="fill:#000000;fill-opacity:1;fill-rule:nonzero;opacity:1;stroke:none;" d="M98.3357,29.6134 C98.3357,29.6134,101.263,29.6134,101.263,29.6134 C101.263,29.6134,101.704,31.3763,101.704,31.3763 C101.788,31.7261,101.83,32.006,101.83,32.1739 C101.83,32.5796,101.61,32.7475,101.075,32.7755 C101.075,32.7755,101.075,33.1253,101.075,33.1253 C101.075,33.1253,103.782,33.1253,103.782,33.1253 C103.782,33.1253,103.782,32.7755,103.782,32.7755 C103.173,32.7475,102.974,32.4817,102.68,31.3344 C102.68,31.3344,100.455,22.8833,100.455,22.8833 C100.455,22.8833,99.8048,22.9813,99.8048,22.9813 C99.8048,22.9813,97.5697,30.8726,97.5697,30.8726 C97.1709,32.2858,96.8246,32.7755,96.2264,32.7755 C96.2264,32.7755,96.2264,33.1253,96.2264,33.1253 C96.2264,33.1253,98.682,33.1253,98.682,33.1253 C98.682,33.1253,98.682,32.7755,98.682,32.7755 C98.0734,32.7475,97.8005,32.5237,97.8005,32.0199 C97.8005,31.7541,97.874,31.3204,97.9999,30.8726 C97.9999,30.8726,98.3357,29.6134,98.3357,29.6134 z M101.127,29.0957 C101.127,29.0957,98.4826,29.0957,98.4826,29.0957 C98.4826,29.0957,99.8468,24.1985,99.8468,24.1985 C99.8468,24.1985,101.127,29.0957,101.127,29.0957 z"/>
    <path id="am26" style="fill:none;opacity:1;stroke:#000000;stroke-linecap:round;stroke-linejoin:round;stroke-miterlimit:10;stroke-opacity:1;stroke-width:0.966902;" d="M148.846,99.6801 C148.846,99.6801,120.616,102.189,112.696,102.06 C102.293,101.891,100.263,89.2039,100.263,89.2039"/>
    <g id="am27">
      <path id="am28" style="fill:#000000;fill-opacity:1;fill-rule:nonzero;opacity:1;stroke:none;" d="M147.518,101.872 C147.518,101.872,153.928,99.4625,153.928,99.4625 C153.928,99.4625,147.325,97.631,147.325,97.631 C147.325,97.631,147.518,101.872,147.518,101.872 z"/>
    </g>
    <path id="am29" style="fill:#000000;fill-opacity:1;fill-rule:nonzero;opacity:1;stroke:none;" d="M97.2382,86.953 C97.2382,86.953,100.051,86.953,100.051,86.953 C100.764,86.953,101.425,86.8551,101.824,86.7012 C102.768,86.2954,103.23,85.4979,103.23,84.2107 C103.23,83.1473,102.894,82.4197,102.181,81.93 C101.813,81.6782,101.488,81.5802,100.974,81.5522 C100.974,81.5522,100.974,81.4543,100.974,81.4543 C102.296,81.2304,102.936,80.4889,102.936,79.1596 C102.936,78.2362,102.643,77.6065,102.034,77.2148 C101.625,76.9629,100.922,76.809,100.103,76.809 C100.103,76.809,97.2382,76.809,97.2382,76.809 C97.2382,76.809,97.2382,77.1448,97.2382,77.1448 C97.7209,77.1448,97.9098,77.2567,97.9833,77.5506 C98.0147,77.6765,98.0147,77.6905,98.0357,78.586 C98.0357,78.586,98.0357,85.1761,98.0357,85.1761 C98.0147,86.2255,98.0147,86.2395,97.8993,86.4074 C97.8049,86.5473,97.595,86.6172,97.2382,86.6172 C97.2382,86.6172,97.2382,86.953,97.2382,86.953 z M98.9697,81.3004 C98.9697,81.3004,98.9697,77.2288,98.9697,77.2288 C98.9697,77.2288,99.9351,77.2288,99.9351,77.2288 C101.289,77.2288,101.939,77.8724,101.939,79.2156 C101.939,80.5868,101.289,81.3004,100.03,81.3004 C100.03,81.3004,98.9697,81.3004,98.9697,81.3004 z M98.9697,86.5333 C98.9697,86.5333,98.9697,81.7621,98.9697,81.7621 C98.9697,81.7621,99.9876,81.7621,99.9876,81.7621 C100.565,81.7621,101.079,81.888,101.383,82.0979 C101.887,82.4617,102.16,83.1473,102.16,84.0987 C102.16,84.9242,101.971,85.5958,101.635,85.9596 C101.299,86.3514,100.754,86.5333,99.9876,86.5333 C99.9876,86.5333,98.9697,86.5333,98.9697,86.5333 z"/>
    <path id="am30" style="fill:#000000;fill-opacity:1;fill-rule:nonzero;opacity:1;stroke:none;" d="M161.973,97.9916 C161.973,97.9916,161.973,94.9413,161.973,94.9413 C161.627,95.1092,161.575,95.1372,161.428,95.1372 C161.249,95.1372,161.144,95.1092,160.651,94.8994 C160.189,94.7035,159.728,94.5916,159.318,94.5916 C158.615,94.5916,157.87,94.8994,157.335,95.4451 C156.391,96.3685,155.856,98.0335,155.856,99.9924 C155.856,101.545,156.191,102.819,156.842,103.756 C157.461,104.638,158.311,105.127,159.256,105.127 C160.179,105.127,160.977,104.75,161.512,104.064 C161.879,103.588,162.141,103.029,162.372,102.217 C162.372,102.217,162.068,102.035,162.068,102.035 C161.659,103.616,160.714,104.568,159.549,104.568 C157.965,104.568,156.915,102.651,156.915,99.7265 C156.915,98.3693,157.125,97.18,157.524,96.3265 C157.902,95.487,158.605,94.9693,159.36,94.9693 C160.043,94.9693,160.683,95.3891,161.113,96.1027 C161.396,96.6064,161.543,97.1241,161.638,97.9916 C161.638,97.9916,161.973,97.9916,161.973,97.9916 z"/>
    <path id="am31" style="fill:#000000;fill-opacity:1;fill-rule:nonzero;opacity:1;stroke:none;" d="M217.154,93.778 C217.154,93.778,219.851,93.778,219.851,93.778 C221.121,93.778,221.982,93.5402,222.622,92.994 C223.577,92.1685,224.091,90.6434,224.091,88.6425 C224.091,86.5438,223.535,85.0187,222.464,84.2072 C221.95,83.8154,221.195,83.6335,220.114,83.6335 C220.114,83.6335,217.154,83.6335,217.154,83.6335 C217.154,83.6335,217.154,83.9693,217.154,83.9693 C217.637,83.9693,217.826,84.0812,217.899,84.3751 C217.931,84.501,217.931,84.515,217.952,85.4104 C217.952,85.4104,217.952,92.0006,217.952,92.0006 C217.931,93.05,217.931,93.0639,217.815,93.2323 C217.721,93.3723,217.511,93.4422,217.154,93.4422 C217.154,93.4422,217.154,93.778,217.154,93.778 z M218.907,93.3583 C218.907,93.3583,218.907,84.0532,218.907,84.0532 C218.907,84.0532,219.904,84.0532,219.904,84.0532 C221.163,84.0532,222.024,84.5569,222.464,85.5364 C222.832,86.3759,223.031,87.5372,223.031,88.8804 C223.031,90.3355,222.769,91.4969,222.286,92.2384 C221.814,92.966,221.006,93.3583,219.977,93.3583 C219.977,93.3583,218.907,93.3583,218.907,93.3583 z"/>
  </g>
  <g id="am32">
    <path id="am33" style="fill:#ffffff;fill-opacity:1;fill-rule:nonzero;opacity:1;stroke:#000000;stroke-linecap:butt;stroke-linejoin:round;stroke-miterlimit:10;stroke-opacity:1;stroke-width:0.3;" d="M37.9621,13.9518 C32.652,16.7586,34.3723,20.7444,34.3723,20.7444 C34.3723,20.7444,28.685,21.2697,27.8207,28.069 C26.8779,35.4861,32.1334,36.7126,32.1334,36.7126 C32.1334,36.7126,31.9077,43.3155,36.0029,45.4131 C40.7279,47.8331,44.6799,45.1615,44.6799,45.1615 C44.6799,45.1615,46.951,50.7718,51.9064,51.1752 C57.6636,51.6438,60.099,47.9496,60.099,47.9496 C60.099,47.9496,63.4307,50.6566,68.8471,47.7179 C75.0987,44.3261,73.8025,41.2643,73.8025,41.2643 C73.8025,41.2643,79.0531,41.7329,81.7702,36.079 C83.5981,32.2754,80.3137,29.9129,80.3137,29.9129 C80.3137,29.9129,91.7227,28.1267,91.7227,28.1267 C91.7227,28.1267,80.2561,25.3032,80.2561,25.3032 C80.1354,25.1245,83.6055,21.2887,80.9253,19.0123 C77.8415,16.3932,72.0963,17.7028,72.0963,17.7028 C72.0963,17.7028,71.738,12.415,67.1298,11.1179 C61.4086,9.50742,58.4752,13.6637,58.4752,13.6637 C58.4752,13.6637,55.557,8.99987,51.0336,10.0362 C47.2568,10.9015,45.5104,14.2399,45.5104,14.2399 C45.5104,14.2399,41.9955,11.8198,37.9621,13.9518 z"/>
    <g id="am34">
      <g id="am36">
        <path style="fill:#000000;fill-opacity:1;fill-rule:nonzero;opacity:1;stroke:none;" d="M41.9327,26.3179 C41.9327,26.3179,41.9327,27.1724,41.9327,27.1724 C41.9327,27.1724,39.5157,27.1724,39.5157,27.1724 C39.5157,27.1724,39.5157,33.4907,39.5157,33.4907 C39.5157,33.4907,38.5294,33.4907,38.5294,33.4907 C38.5294,33.4907,38.5294,27.1724,38.5294,27.1724 C38.5294,27.1724,36.1124,27.1724,36.1124,27.1724 C36.1124,27.1724,36.1124,26.3179,36.1124,26.3179 C36.1124,26.3179,41.9327,26.3179,41.9327,26.3179 z M42.7042,26.2935 C42.7042,26.2935,43.5831,26.2935,43.5831,26.2935 C43.5831,26.2935,43.5831,28.9693,43.5831,28.9693 C43.7914,28.7056,43.9786,28.52,44.1446,28.4126 C44.4278,28.2271,44.781,28.1343,45.2042,28.1343 C45.9627,28.1343,46.477,28.3996,46.7472,28.9302 C46.8937,29.2199,46.9669,29.6219,46.9669,30.1362 C46.9669,30.1362,46.9669,33.4907,46.9669,33.4907 C46.9669,33.4907,46.0636,33.4907,46.0636,33.4907 C46.0636,33.4907,46.0636,30.1948,46.0636,30.1948 C46.0636,29.8107,46.0147,29.5292,45.9171,29.3501 C45.7576,29.0637,45.4581,28.9204,45.0187,28.9204 C44.6541,28.9204,44.3237,29.0458,44.0274,29.2964 C43.7312,29.5471,43.5831,30.0207,43.5831,30.7173 C43.5831,30.7173,43.5831,33.4907,43.5831,33.4907 C43.5831,33.4907,42.7042,33.4907,42.7042,33.4907 C42.7042,33.4907,42.7042,26.2935,42.7042,26.2935 z M50.3409,32.9243 C50.9236,32.9243,51.3232,32.7038,51.5396,32.2627 C51.7561,31.8216,51.8644,31.3309,51.8644,30.7905 C51.8644,30.3023,51.7862,29.9051,51.63,29.5991 C51.3826,29.1174,50.9562,28.8765,50.3507,28.8765 C49.8136,28.8765,49.423,29.0816,49.1788,29.4917 C48.9347,29.9019,48.8126,30.3967,48.8126,30.9761 C48.8126,31.5327,48.9347,31.9966,49.1788,32.3677 C49.423,32.7388,49.8103,32.9243,50.3409,32.9243 z M50.3751,28.1099 C51.0489,28.1099,51.6186,28.3345,52.0841,28.7837 C52.5496,29.2329,52.7823,29.8937,52.7823,30.7661 C52.7823,31.6092,52.5772,32.3058,52.1671,32.856 C51.7569,33.4061,51.1205,33.6812,50.2579,33.6812 C49.5385,33.6812,48.9672,33.4378,48.544,32.9512 C48.1209,32.4645,47.9093,31.8111,47.9093,30.9907 C47.9093,30.1118,48.1323,29.412,48.5782,28.8911 C49.0242,28.3703,49.6231,28.1099,50.3751,28.1099 z M50.3458,28.1343 M54.7062,28.2612 C54.7062,28.2612,54.7062,31.7329,54.7062,31.7329 C54.7062,31.9999,54.7485,32.218,54.8331,32.3872 C54.9894,32.6997,55.2807,32.856,55.7071,32.856 C56.3191,32.856,56.7358,32.5825,56.9571,32.0357 C57.0776,31.7427,57.1378,31.3407,57.1378,30.8296 C57.1378,30.8296,57.1378,28.2612,57.1378,28.2612 C57.1378,28.2612,58.0167,28.2612,58.0167,28.2612 C58.0167,28.2612,58.0167,33.4907,58.0167,33.4907 C58.0167,33.4907,57.1866,33.4907,57.1866,33.4907 C57.1866,33.4907,57.1964,32.7193,57.1964,32.7193 C57.0825,32.9178,56.9409,33.0855,56.7716,33.2222 C56.4363,33.4956,56.0294,33.6323,55.5509,33.6323 C54.8054,33.6323,54.2976,33.3833,54.0274,32.8853 C53.881,32.6183,53.8077,32.2619,53.8077,31.8159 C53.8077,31.8159,53.8077,28.2612,53.8077,28.2612 C53.8077,28.2612,54.7062,28.2612,54.7062,28.2612 z M55.9122,28.1343 M61.2345,28.1685 C61.6446,28.1685,62.0027,28.2694,62.3087,28.4712 C62.4747,28.5851,62.644,28.7512,62.8165,28.9693 C62.8165,28.9693,62.8165,28.3101,62.8165,28.3101 C62.8165,28.3101,63.6271,28.3101,63.6271,28.3101 C63.6271,28.3101,63.6271,33.0659,63.6271,33.0659 C63.6271,33.73,63.5294,34.2541,63.3341,34.6382 C62.9695,35.3478,62.281,35.7027,61.2687,35.7027 C60.7055,35.7027,60.2319,35.5765,59.8478,35.3242 C59.4636,35.072,59.2488,34.6773,59.2032,34.1402 C59.2032,34.1402,60.0968,34.1402,60.0968,34.1402 C60.1391,34.3745,60.2237,34.5552,60.3507,34.6821 C60.5493,34.8775,60.8618,34.9751,61.2882,34.9751 C61.962,34.9751,62.4031,34.7375,62.6114,34.2622 C62.7351,33.9823,62.7921,33.4826,62.7823,32.7632 C62.6065,33.0301,62.395,33.2287,62.1476,33.3589 C61.9002,33.4891,61.573,33.5542,61.1661,33.5542 C60.5997,33.5542,60.1041,33.3532,59.6793,32.9512 C59.2545,32.5492,59.0421,31.8843,59.0421,30.9566 C59.0421,30.0809,59.2561,29.3973,59.6842,28.9058 C60.1122,28.4142,60.629,28.1685,61.2345,28.1685 z M62.8165,30.854 C62.8165,30.2062,62.683,29.7261,62.4161,29.4136 C62.1492,29.1011,61.809,28.9448,61.3956,28.9448 C60.7771,28.9448,60.3539,29.2346,60.1261,29.814 C60.0056,30.1232,59.9454,30.5285,59.9454,31.0298 C59.9454,31.619,60.065,32.0674,60.3043,32.375 C60.5436,32.6826,60.865,32.8364,61.2687,32.8364 C61.9002,32.8364,62.3445,32.5516,62.6017,31.9819 C62.7449,31.6597,62.8165,31.2837,62.8165,30.854 z M61.337,28.1343 M64.9503,26.2935 C64.9503,26.2935,65.8292,26.2935,65.8292,26.2935 C65.8292,26.2935,65.8292,28.9693,65.8292,28.9693 C66.0375,28.7056,66.2247,28.52,66.3907,28.4126 C66.6739,28.2271,67.0271,28.1343,67.4503,28.1343 C68.2088,28.1343,68.7231,28.3996,68.9933,28.9302 C69.1397,29.2199,69.213,29.6219,69.213,30.1362 C69.213,30.1362,69.213,33.4907,69.213,33.4907 C69.213,33.4907,68.3097,33.4907,68.3097,33.4907 C68.3097,33.4907,68.3097,30.1948,68.3097,30.1948 C68.3097,29.8107,68.2608,29.5292,68.1632,29.3501 C68.0037,29.0637,67.7042,28.9204,67.2647,28.9204 C66.9002,28.9204,66.5698,29.0458,66.2735,29.2964 C65.9773,29.5471,65.8292,30.0207,65.8292,30.7173 C65.8292,30.7173,65.8292,33.4907,65.8292,33.4907 C65.8292,33.4907,64.9503,33.4907,64.9503,33.4907 C64.9503,33.4907,64.9503,26.2935,64.9503,26.2935 z M70.6876,26.8013 C70.6876,26.8013,71.5763,26.8013,71.5763,26.8013 C71.5763,26.8013,71.5763,28.2612,71.5763,28.2612 C71.5763,28.2612,72.4112,28.2612,72.4112,28.2612 C72.4112,28.2612,72.4112,28.979,72.4112,28.979 C72.4112,28.979,71.5763,28.979,71.5763,28.979 C71.5763,28.979,71.5763,32.3921,71.5763,32.3921 C71.5763,32.5744,71.6381,32.6965,71.7618,32.7583 C71.8302,32.7941,71.9441,32.812,72.1036,32.812 C72.1459,32.812,72.1915,32.8112,72.2403,32.8096 C72.2892,32.808,72.3461,32.8039,72.4112,32.7974 C72.4112,32.7974,72.4112,33.4907,72.4112,33.4907 C72.3103,33.52,72.2053,33.5412,72.0963,33.5542 C71.9872,33.5672,71.8692,33.5737,71.7423,33.5737 C71.3321,33.5737,71.0538,33.4688,70.9073,33.2588 C70.7608,33.0488,70.6876,32.7762,70.6876,32.4409 C70.6876,32.4409,70.6876,28.979,70.6876,28.979 C70.6876,28.979,69.9796,28.979,69.9796,28.979 C69.9796,28.979,69.9796,28.2612,69.9796,28.2612 C69.9796,28.2612,70.6876,28.2612,70.6876,28.2612 C70.6876,28.2612,70.6876,26.8013,70.6876,26.8013 z"/>
      </g>
    </g>
    <g id="am37">
      <g id="am39">
        <path style="fill:#000000;fill-opacity:1;fill-rule:nonzero;opacity:1;stroke:none;" d="M248.669,143.879 C247.842,143.879,247.242,143.652,246.869,143.198 C246.497,142.744,246.31,142.191,246.31,141.54 C246.31,141.54,247.228,141.54,247.228,141.54 C247.267,141.993,247.352,142.322,247.482,142.527 C247.71,142.894,248.122,143.078,248.718,143.078 C249.18,143.078,249.551,142.955,249.831,142.707 C250.111,142.46,250.251,142.141,250.251,141.75 C250.251,141.268,250.104,140.932,249.809,140.739 C249.514,140.547,249.105,140.451,248.581,140.451 C248.522,140.451,248.463,140.452,248.403,140.454 C248.342,140.455,248.281,140.458,248.22,140.461 C248.22,140.461,248.22,139.685,248.22,139.685 C248.311,139.695,248.387,139.701,248.449,139.704 C248.511,139.708,248.578,139.709,248.649,139.709 C248.978,139.709,249.248,139.657,249.46,139.553 C249.831,139.371,250.016,139.045,250.016,138.576 C250.016,138.228,249.893,137.96,249.645,137.771 C249.398,137.582,249.11,137.488,248.781,137.488 C248.195,137.488,247.79,137.683,247.565,138.073 C247.442,138.288,247.372,138.594,247.355,138.991 C247.355,138.991,246.486,138.991,246.486,138.991 C246.486,138.471,246.59,138.028,246.799,137.663 C247.157,137.012,247.787,136.687,248.688,136.687 C249.401,136.687,249.953,136.845,250.344,137.163 C250.734,137.48,250.93,137.94,250.93,138.542 C250.93,138.972,250.814,139.32,250.583,139.587 C250.44,139.753,250.254,139.883,250.026,139.978 C250.394,140.079,250.681,140.273,250.888,140.561 C251.095,140.849,251.198,141.202,251.198,141.618 C251.198,142.286,250.978,142.829,250.539,143.249 C250.099,143.669,249.476,143.879,248.669,143.879 z M252.59,138.738 C252.59,138.738,252.59,138.064,252.59,138.064 C253.224,138.002,253.667,137.898,253.918,137.754 C254.168,137.609,254.356,137.266,254.479,136.726 C254.479,136.726,255.173,136.726,255.173,136.726 C255.173,136.726,255.173,143.689,255.173,143.689 C255.173,143.689,254.235,143.689,254.235,143.689 C254.235,143.689,254.235,138.738,254.235,138.738 C254.235,138.738,252.59,138.738,252.59,138.738 z M257.609,140.451 C257.609,140.451,260.06,140.451,260.06,140.451 C260.06,140.451,260.06,141.355,260.06,141.355 C260.06,141.355,257.609,141.355,257.609,141.355 C257.609,141.355,257.609,140.451,257.609,140.451 z M261.691,142.048 C261.717,142.341,261.79,142.566,261.911,142.722 C262.132,143.005,262.516,143.147,263.063,143.147 C263.389,143.147,263.675,143.076,263.923,142.934 C264.17,142.793,264.294,142.574,264.294,142.278 C264.294,142.053,264.194,141.882,263.996,141.765 C263.869,141.693,263.618,141.61,263.244,141.516 C263.244,141.516,262.546,141.34,262.546,141.34 C262.1,141.229,261.771,141.106,261.559,140.969 C261.182,140.731,260.993,140.403,260.993,139.983 C260.993,139.488,261.171,139.087,261.528,138.781 C261.884,138.475,262.363,138.322,262.966,138.322 C263.753,138.322,264.321,138.554,264.67,139.016 C264.888,139.309,264.994,139.625,264.987,139.963 C264.987,139.963,264.157,139.963,264.157,139.963 C264.141,139.765,264.071,139.584,263.947,139.421 C263.745,139.19,263.395,139.074,262.897,139.074 C262.565,139.074,262.314,139.138,262.143,139.265 C261.972,139.392,261.887,139.559,261.887,139.768 C261.887,139.996,261.999,140.178,262.223,140.315 C262.354,140.396,262.546,140.468,262.8,140.53 C262.8,140.53,263.381,140.671,263.381,140.671 C264.012,140.824,264.435,140.972,264.65,141.115 C264.992,141.34,265.163,141.693,265.163,142.175 C265.163,142.641,264.986,143.043,264.633,143.381 C264.28,143.72,263.742,143.889,263.019,143.889 C262.241,143.889,261.69,143.712,261.367,143.359 C261.043,143.006,260.869,142.569,260.846,142.048 C260.846,142.048,261.691,142.048,261.691,142.048 z M262.99,138.332 M269.435,138.459 C269.435,138.459,270.407,138.459,270.407,138.459 C270.283,138.794,270.008,139.559,269.582,140.754 C269.263,141.653,268.996,142.385,268.781,142.951 C268.273,144.286,267.915,145.1,267.707,145.393 C267.499,145.686,267.14,145.832,266.633,145.832 C266.509,145.832,266.414,145.827,266.347,145.818 C266.28,145.808,266.198,145.79,266.1,145.764 C266.1,145.764,266.1,144.963,266.1,144.963 C266.253,145.005,266.364,145.031,266.432,145.041 C266.501,145.051,266.561,145.056,266.613,145.056 C266.776,145.056,266.895,145.029,266.972,144.975 C267.048,144.922,267.113,144.856,267.165,144.778 C267.181,144.752,267.24,144.618,267.341,144.377 C267.442,144.136,267.515,143.957,267.56,143.84 C267.56,143.84,265.627,138.459,265.627,138.459 C265.627,138.459,266.623,138.459,266.623,138.459 C266.623,138.459,268.024,142.717,268.024,142.717 C268.024,142.717,269.435,138.459,269.435,138.459 z M268.019,138.332 M271.193,136.516 C271.193,136.516,272.072,136.516,272.072,136.516 C272.072,136.516,272.072,143.689,272.072,143.689 C272.072,143.689,271.193,143.689,271.193,143.689 C271.193,143.689,271.193,136.516,271.193,136.516 z M273.415,136.516 C273.415,136.516,274.294,136.516,274.294,136.516 C274.294,136.516,274.294,143.689,274.294,143.689 C274.294,143.689,273.415,143.689,273.415,143.689 C273.415,143.689,273.415,136.516,273.415,136.516 z M276.286,142.297 C276.286,142.551,276.379,142.751,276.564,142.898 C276.75,143.044,276.97,143.117,277.223,143.117 C277.533,143.117,277.832,143.046,278.122,142.903 C278.61,142.665,278.854,142.276,278.854,141.736 C278.854,141.736,278.854,141.028,278.854,141.028 C278.747,141.096,278.609,141.153,278.439,141.198 C278.27,141.244,278.104,141.277,277.941,141.296 C277.941,141.296,277.409,141.364,277.409,141.364 C277.09,141.407,276.851,141.474,276.691,141.565 C276.421,141.718,276.286,141.962,276.286,142.297 z M278.415,140.52 C278.617,140.494,278.752,140.409,278.82,140.266 C278.859,140.188,278.879,140.075,278.879,139.929 C278.879,139.629,278.772,139.412,278.559,139.277 C278.346,139.142,278.04,139.074,277.643,139.074 C277.184,139.074,276.859,139.198,276.667,139.446 C276.559,139.582,276.489,139.786,276.457,140.056 C276.457,140.056,275.637,140.056,275.637,140.056 C275.653,139.411,275.862,138.963,276.264,138.711 C276.666,138.458,277.132,138.332,277.663,138.332 C278.278,138.332,278.778,138.449,279.162,138.684 C279.543,138.918,279.733,139.283,279.733,139.778 C279.733,139.778,279.733,142.79,279.733,142.79 C279.733,142.881,279.752,142.955,279.789,143.01 C279.827,143.065,279.906,143.093,280.026,143.093 C280.065,143.093,280.109,143.091,280.158,143.086 C280.207,143.081,280.259,143.073,280.314,143.064 C280.314,143.064,280.314,143.713,280.314,143.713 C280.178,143.752,280.073,143.777,280.002,143.786 C279.93,143.796,279.832,143.801,279.709,143.801 C279.406,143.801,279.186,143.694,279.05,143.479 C278.978,143.365,278.928,143.204,278.898,142.995 C278.719,143.23,278.462,143.433,278.127,143.606 C277.791,143.778,277.422,143.864,277.018,143.864 C276.533,143.864,276.137,143.717,275.829,143.423 C275.522,143.128,275.368,142.759,275.368,142.317 C275.368,141.832,275.519,141.456,275.822,141.189 C276.125,140.922,276.522,140.757,277.013,140.696 C277.013,140.696,278.415,140.52,278.415,140.52 z M277.687,138.332 M281.105,136.491 C281.105,136.491,281.96,136.491,281.96,136.491 C281.96,136.491,281.96,139.094,281.96,139.094 C282.152,138.843,282.381,138.652,282.648,138.52 C282.915,138.388,283.205,138.322,283.517,138.322 C284.168,138.322,284.697,138.546,285.102,138.994 C285.507,139.441,285.71,140.101,285.71,140.974 C285.71,141.801,285.51,142.488,285.109,143.034 C284.709,143.581,284.154,143.855,283.444,143.855 C283.047,143.855,282.712,143.759,282.438,143.567 C282.276,143.453,282.101,143.27,281.916,143.02 C281.916,143.02,281.916,143.689,281.916,143.689 C281.916,143.689,281.105,143.689,281.105,143.689 C281.105,143.689,281.105,136.491,281.105,136.491 z M283.39,143.078 C283.866,143.078,284.221,142.89,284.457,142.512 C284.693,142.134,284.811,141.636,284.811,141.018 C284.811,140.468,284.693,140.012,284.457,139.651 C284.221,139.289,283.874,139.109,283.415,139.109 C283.014,139.109,282.664,139.257,282.363,139.553 C282.061,139.849,281.911,140.337,281.911,141.018 C281.911,141.509,281.973,141.908,282.096,142.214 C282.328,142.79,282.759,143.078,283.39,143.078 z M286.76,136.516 C286.76,136.516,287.638,136.516,287.638,136.516 C287.638,136.516,287.638,143.689,287.638,143.689 C287.638,143.689,286.76,143.689,286.76,143.689 C286.76,143.689,286.76,136.516,286.76,136.516 z M291.135,138.342 C291.506,138.342,291.865,138.429,292.214,138.603 C292.562,138.777,292.827,139.003,293.01,139.28 C293.185,139.543,293.303,139.851,293.361,140.202 C293.413,140.443,293.439,140.827,293.439,141.355 C293.439,141.355,289.606,141.355,289.606,141.355 C289.623,141.885,289.748,142.311,289.982,142.632 C290.217,142.952,290.58,143.113,291.071,143.113 C291.53,143.113,291.896,142.961,292.17,142.658 C292.326,142.483,292.437,142.279,292.502,142.048 C292.502,142.048,293.366,142.048,293.366,142.048 C293.343,142.24,293.268,142.454,293.139,142.69 C293.01,142.926,292.866,143.119,292.707,143.269 C292.44,143.529,292.11,143.705,291.716,143.796 C291.504,143.848,291.265,143.874,290.998,143.874 C290.347,143.874,289.795,143.637,289.343,143.164 C288.89,142.69,288.664,142.027,288.664,141.174 C288.664,140.334,288.892,139.652,289.347,139.128 C289.803,138.604,290.399,138.342,291.135,138.342 z M292.536,140.656 C292.5,140.276,292.417,139.971,292.287,139.743 C292.046,139.32,291.644,139.109,291.081,139.109 C290.677,139.109,290.339,139.254,290.065,139.546 C289.792,139.837,289.647,140.207,289.631,140.656 C289.631,140.656,292.536,140.656,292.536,140.656 z M291.052,138.332 M294.289,140.451 C294.289,140.451,296.74,140.451,296.74,140.451 C296.74,140.451,296.74,141.355,296.74,141.355 C296.74,141.355,294.289,141.355,294.289,141.355 C294.289,141.355,294.289,140.451,294.289,140.451 z M300.055,143.098 C300.466,143.098,300.807,142.926,301.078,142.583 C301.35,142.239,301.486,141.726,301.486,141.042 C301.486,140.626,301.426,140.267,301.305,139.968 C301.078,139.392,300.661,139.104,300.055,139.104 C299.447,139.104,299.03,139.408,298.805,140.017 C298.685,140.342,298.625,140.756,298.625,141.257 C298.625,141.661,298.685,142.004,298.805,142.287 C299.033,142.828,299.45,143.098,300.055,143.098 z M297.78,138.484 C297.78,138.484,298.635,138.484,298.635,138.484 C298.635,138.484,298.635,139.177,298.635,139.177 C298.81,138.939,299.002,138.755,299.211,138.625 C299.507,138.43,299.855,138.332,300.256,138.332 C300.848,138.332,301.351,138.559,301.764,139.013 C302.178,139.468,302.385,140.116,302.385,140.959 C302.385,142.099,302.087,142.912,301.491,143.401 C301.113,143.71,300.674,143.864,300.173,143.864 C299.779,143.864,299.448,143.778,299.181,143.606 C299.025,143.508,298.851,143.34,298.659,143.103 C298.659,143.103,298.659,145.774,298.659,145.774 C298.659,145.774,297.78,145.774,297.78,145.774 C297.78,145.774,297.78,138.484,297.78,138.484 z M305.485,143.122 C306.068,143.122,306.467,142.902,306.684,142.461 C306.9,142.02,307.009,141.529,307.009,140.989 C307.009,140.5,306.93,140.103,306.774,139.797 C306.527,139.315,306.1,139.074,305.495,139.074 C304.958,139.074,304.567,139.28,304.323,139.69 C304.079,140.1,303.957,140.595,303.957,141.174 C303.957,141.731,304.079,142.195,304.323,142.566 C304.567,142.937,304.955,143.122,305.485,143.122 z M305.519,138.308 C306.193,138.308,306.763,138.532,307.228,138.982 C307.694,139.431,307.927,140.092,307.927,140.964 C307.927,141.807,307.721,142.504,307.311,143.054 C306.901,143.604,306.265,143.879,305.402,143.879 C304.683,143.879,304.111,143.636,303.688,143.149 C303.265,142.663,303.054,142.009,303.054,141.189 C303.054,140.31,303.277,139.61,303.722,139.089 C304.168,138.568,304.767,138.308,305.519,138.308 z M305.49,138.332 M311.149,138.342 C311.52,138.342,311.88,138.429,312.228,138.603 C312.577,138.777,312.842,139.003,313.024,139.28 C313.2,139.543,313.317,139.851,313.376,140.202 C313.428,140.443,313.454,140.827,313.454,141.355 C313.454,141.355,309.621,141.355,309.621,141.355 C309.637,141.885,309.763,142.311,309.997,142.632 C310.231,142.952,310.594,143.113,311.086,143.113 C311.545,143.113,311.911,142.961,312.184,142.658 C312.341,142.483,312.451,142.279,312.516,142.048 C312.516,142.048,313.381,142.048,313.381,142.048 C313.358,142.24,313.282,142.454,313.154,142.69 C313.025,142.926,312.881,143.119,312.721,143.269 C312.455,143.529,312.124,143.705,311.73,143.796 C311.519,143.848,311.279,143.874,311.013,143.874 C310.361,143.874,309.81,143.637,309.357,143.164 C308.905,142.69,308.679,142.027,308.679,141.174 C308.679,140.334,308.906,139.652,309.362,139.128 C309.818,138.604,310.414,138.342,311.149,138.342 z M312.551,140.656 C312.515,140.276,312.432,139.971,312.302,139.743 C312.061,139.32,311.659,139.109,311.096,139.109 C310.692,139.109,310.353,139.254,310.08,139.546 C309.806,139.837,309.662,140.207,309.645,140.656 C309.645,140.656,312.551,140.656,312.551,140.656 z M311.066,138.332 M314.533,138.459 C314.533,138.459,315.402,138.459,315.402,138.459 C315.402,138.459,315.402,139.201,315.402,139.201 C315.611,138.944,315.799,138.757,315.969,138.64 C316.258,138.441,316.587,138.342,316.955,138.342 C317.372,138.342,317.707,138.445,317.961,138.65 C318.104,138.767,318.234,138.939,318.351,139.167 C318.547,138.887,318.776,138.68,319.04,138.545 C319.304,138.41,319.6,138.342,319.929,138.342 C320.632,138.342,321.11,138.596,321.364,139.104 C321.501,139.377,321.569,139.745,321.569,140.207 C321.569,140.207,321.569,143.689,321.569,143.689 C321.569,143.689,320.656,143.689,320.656,143.689 C320.656,143.689,320.656,140.056,320.656,140.056 C320.656,139.708,320.569,139.468,320.395,139.338 C320.221,139.208,320.008,139.143,319.758,139.143 C319.413,139.143,319.116,139.258,318.867,139.489 C318.617,139.721,318.493,140.106,318.493,140.647 C318.493,140.647,318.493,143.689,318.493,143.689 C318.493,143.689,317.599,143.689,317.599,143.689 C317.599,143.689,317.599,140.276,317.599,140.276 C317.599,139.921,317.557,139.662,317.472,139.499 C317.339,139.255,317.09,139.133,316.725,139.133 C316.393,139.133,316.091,139.262,315.82,139.519 C315.548,139.776,315.412,140.241,315.412,140.915 C315.412,140.915,315.412,143.689,315.412,143.689 C315.412,143.689,314.533,143.689,314.533,143.689 C314.533,143.689,314.533,138.459,314.533,138.459 z"/>
      </g>
    </g>
  </g>
</svg>
